<?xml version="1.0" encoding="UTF-8" standalone="no"?>
<svg
   xmlns:dc="http://purl.org/dc/elements/1.1/"
   xmlns:cc="http://creativecommons.org/ns#"
   xmlns:rdf="http://www.w3.org/1999/02/22-rdf-syntax-ns#"
   xmlns:svg="http://www.w3.org/2000/svg"
   xmlns="http://www.w3.org/2000/svg"
   xmlns:sodipodi="http://sodipodi.sourceforge.net/DTD/sodipodi-0.dtd"
   xmlns:inkscape="http://www.inkscape.org/namespaces/inkscape"
   width="372"
   height="372"
   viewBox="0 0 98.425006 98.425006"
   version="1.1"
   id="svg8"
   inkscape:version="0.92.5 (2060ec1f9f, 2020-04-08)"
   sodipodi:docname="logo-final2-3.svg"
   inkscape:export-filename="/home/ilhooq/Dev/PHP/Piko/Logo/logo2.png"
   inkscape:export-xdpi="132.12903"
   inkscape:export-ydpi="132.12903">
  <defs
     id="defs2" />
  <sodipodi:namedview
     id="base"
     pagecolor="#ffffff"
     bordercolor="#666666"
     borderopacity="1.0"
     inkscape:pageopacity="0.0"
     inkscape:pageshadow="2"
     inkscape:zoom="1.4142136"
     inkscape:cx="196.961"
     inkscape:cy="248.73669"
     inkscape:document-units="px"
     inkscape:current-layer="g912"
     showgrid="false"
     fit-margin-top="10"
     fit-margin-left="10"
     fit-margin-right="10"
     fit-margin-bottom="10"
     units="px"
     inkscape:window-width="1920"
     inkscape:window-height="1015"
     inkscape:window-x="0"
     inkscape:window-y="28"
     inkscape:window-maximized="1"
     inkscape:pagecheckerboard="true"
     inkscape:snap-global="false"
     showguides="true"
     inkscape:guide-bbox="true"
     inkscape:document-rotation="0">
    <sodipodi:guide
       position="98.847339,2.6679521"
       orientation="0,1"
       id="guide961"
       inkscape:locked="false" />
  </sodipodi:namedview>
  <metadata
     id="metadata5">
    <rdf:RDF>
      <cc:Work
         rdf:about="">
        <dc:format>image/svg+xml</dc:format>
        <dc:type
           rdf:resource="http://purl.org/dc/dcmitype/StillImage" />
        <dc:title />
      </cc:Work>
    </rdf:RDF>
  </metadata>
  <g
     inkscape:label="Calque 1"
     inkscape:groupmode="layer"
     id="layer1"
     transform="translate(-44.98366,-39.466601)">
    <path
       id="path987"
       style="fill:#ff6600;stroke-width:0.264583;stroke-linecap:round;stroke-linejoin:round;stroke-dasharray:0.79375, 0.264583"
       d="m 377.48446,40.490828 -30.93041,30.930414 c 1.34451,1.348 2.6518,2.70537 3.91139,4.07107 1.30158,1.411232 2.55645,2.829926 3.76359,4.251937 1.20714,1.422008 2.36636,2.84756 3.47524,4.272089 1.10888,1.424533 2.16769,2.848129 3.17449,4.266926 1.0068,1.418793 1.96145,2.832663 2.86235,4.237466 0.9009,1.404803 1.7482,2.800654 2.53938,4.183208 0.79118,1.382554 1.52636,2.752093 2.204,4.104142 0.67764,1.35205 1.2975,2.68647 1.85777,3.99976 l -5.52008,2.35489 c -0.50847,-1.19187 -1.07666,-2.41348 -1.70273,-3.65921 -0.62609,-1.24572 -1.30991,-2.51564 -2.04949,-3.804932 -0.73959,-1.289291 -1.53484,-2.597608 -2.38384,-3.920176 -0.84899,-1.322564 -1.75198,-2.659369 -2.70629,-4.004924 -0.95431,-1.345551 -1.96031,-2.699901 -3.01584,-4.05815 -1.05552,-1.358249 -2.16033,-2.720232 -3.31297,-4.080889 -1.15265,-1.360654 -2.35308,-2.720361 -3.59875,-4.073136 -1.20373,-1.307227 -2.45402,-2.607016 -3.74086,-3.897437 l -27.50116,27.501164 c 1.29042,1.28684 2.59021,2.53713 3.89743,3.74086 1.35278,1.24567 2.71248,2.4461 4.07314,3.59875 1.36066,1.15264 2.72264,2.25745 4.08089,3.31297 1.35825,1.05553 2.7126,2.06153 4.05815,3.01584 1.34555,0.95431 2.68236,1.8573 4.00492,2.70629 1.32257,0.849 2.63088,1.64425 3.92018,2.38384 1.28929,0.73958 2.55921,1.42341 3.80493,2.04949 1.24573,0.62608 2.46734,1.19426 3.65921,1.70274 l -2.35489,5.52007 c -1.31329,-0.56027 -2.64823,-1.18013 -4.00028,-1.85777 -1.35204,-0.67764 -2.72107,-1.41282 -4.10362,-2.204 -1.38256,-0.79118 -2.77841,-1.63848 -4.18321,-2.53938 -1.4048,-0.9009 -2.81867,-1.85555 -4.23747,-2.86235 -1.41879,-1.00681 -2.84239,-2.06561 -4.26692,-3.17449 -1.42453,-1.10888 -2.85008,-2.2681 -4.27209,-3.47524 -1.42201,-1.20714 -2.84071,-2.46201 -4.25194,-3.76359 -1.3657,-1.25959 -2.72307,-2.56688 -4.07107,-3.91139 l -29.4597,29.4597 h 96.37655 z" />
    <path
       id="path980"
       style="fill:#d35f5f;stroke-width:0.264583;stroke-linecap:round;stroke-linejoin:round;stroke-dasharray:0.79375, 0.264583"
       d="m -100.99039,40.490828 v 96.376552 l 29.459703,-29.4597 c -0.04494,-0.0448 -0.09099,-0.0853 -0.135908,-0.13023 -1.392201,-1.3922 -2.740034,-2.79626 -4.041614,-4.20749 -1.301581,-1.41124 -2.55697,-2.82993 -3.764112,-4.25194 -1.207141,-1.422008 -2.366359,-2.847044 -3.47524,-4.271574 -1.108881,-1.42453 -2.167682,-2.848644 -3.174483,-4.267438 -1.006801,-1.418797 -1.961458,-2.832667 -2.862358,-4.237469 -0.9009,-1.404803 -1.747684,-2.800139 -2.538863,-4.18269 -0.79118,-1.382554 -1.526879,-2.752095 -2.204517,-4.104143 -0.677638,-1.352047 -1.297492,-2.686987 -1.857768,-4.000272 l 5.520077,-2.354379 c 0.508478,1.191871 1.077177,2.412965 1.703255,3.65869 0.626079,1.245727 1.309904,2.515645 2.049488,3.804936 0.739583,1.289291 1.53484,2.598126 2.383834,3.920691 0.848993,1.322568 1.751471,2.659373 2.705778,4.004924 0.954306,1.345552 1.960312,2.699901 3.015837,4.058151 1.055524,1.358249 2.160846,2.720231 3.313494,4.080888 1.152646,1.360657 2.352556,2.719846 3.59823,4.072621 1.245672,1.352774 2.536994,2.699254 3.871598,4.033864 0.04493,0.0449 0.09095,0.0854 0.135908,0.13022 l 27.501167,-27.501164 c -0.04484,-0.04496 -0.08529,-0.09097 -0.130225,-0.135908 -1.334604,-1.334601 -2.68109,-2.625927 -4.033865,-3.871598 -1.352772,-1.245672 -2.71196,-2.445584 -4.072617,-3.598231 -1.360657,-1.152647 -2.72264,-2.257969 -4.080889,-3.313493 -1.358249,-1.055524 -2.713114,-2.06153 -4.058666,-3.015837 -1.345555,-0.954306 -2.681841,-1.856785 -4.004408,-2.705778 -1.322568,-0.848993 -2.631401,-1.64425 -3.920692,-2.383834 -1.289291,-0.739583 -2.559209,-1.423409 -3.804936,-2.049487 -1.245727,-0.626078 -2.466819,-1.194778 -3.65869,-1.703255 l 2.354376,-5.520077 c 1.313289,0.560276 2.648226,1.18013 4.000273,1.857767 1.35205,0.677638 2.721589,1.413338 4.104143,2.204517 1.382554,0.791179 2.77789,1.637964 4.182692,2.538864 1.404803,0.900899 2.818673,1.855557 4.237467,2.862357 1.418796,1.006801 2.842908,2.065603 4.267441,3.174484 1.42453,1.108881 2.849562,2.268099 4.271573,3.47524 1.422012,1.207141 2.840705,2.462532 4.251937,3.764113 1.411235,1.301578 2.815296,2.649413 4.207497,4.041614 0.04492,0.04492 0.0854,0.09096 0.130223,0.135908 L -4.6138351,40.490828 Z" />
    <g
       id="g906"
       transform="translate(-125.4679,107.69226)">
      <path
         inkscape:connector-curvature="0"
         id="ellipse877-5"
         d="m 134.94803,130.90042 c -2.905,2.905 -7.03863,4.06602 -11.4822,3.95262 -4.44357,-0.1134 -9.35855,-1.41597 -14.6117,-3.65707 C 98.347831,126.71376 86.469064,118.41485 75.331465,107.27725 64.193865,96.139651 55.894954,84.260885 51.412745,73.754588 49.171644,68.501448 47.867693,63.585078 47.7543,59.141508 c -0.1134,-4.44357 1.048997,-8.57582 3.953996,-11.48082 2.904993,-2.90499 7.035864,-4.06601 11.479437,-3.95261 4.443567,0.1134 9.359935,1.41734 14.613077,3.65845 10.506293,4.48221 22.38507,12.78111 33.52267,23.918711 11.1376,11.137601 19.43651,23.016375 23.91871,33.522671 2.24111,5.25314 3.54368,10.16813 3.65708,14.61169 0.11339,4.44358 -1.04625,8.57583 -3.95124,11.48082 z m -4.24264,-4.24264 c 1.47876,-1.47876 2.28145,-3.73246 2.1959,-7.08488 -0.0856,-3.35241 -1.14531,-7.64278 -3.17922,-12.41027 -4.06783,-9.534979 -11.9644,-20.957922 -22.64123,-31.634751 -10.676832,-10.67682 -22.099775,-18.5734 -31.634751,-22.64122 -4.767487,-2.03391 -9.057859,-3.093671 -12.410274,-3.17922 -3.352414,-0.0856 -5.60612,0.71714 -7.084878,2.1959 -1.478765,1.47876 -2.28283,3.73384 -2.197277,7.08625 0.08555,3.352419 1.145302,7.6428 3.179214,12.41028 4.067824,9.534979 11.964404,20.957915 22.641231,31.634741 10.676827,10.67683 22.099775,18.57341 31.634745,22.64123 4.76749,2.03391 9.05786,3.09367 12.41028,3.17922 3.35242,0.0855 5.60749,-0.71851 7.08626,-2.19728 z"
         style="color:#000000;font-style:normal;font-variant:normal;font-weight:normal;font-stretch:normal;font-size:medium;line-height:normal;font-family:sans-serif;font-variant-ligatures:normal;font-variant-position:normal;font-variant-caps:normal;font-variant-numeric:normal;font-variant-alternates:normal;font-feature-settings:normal;text-indent:0;text-align:start;text-decoration:none;text-decoration-line:none;text-decoration-style:solid;text-decoration-color:#000000;letter-spacing:normal;word-spacing:normal;text-transform:none;writing-mode:lr-tb;direction:ltr;text-orientation:mixed;dominant-baseline:auto;baseline-shift:baseline;text-anchor:start;white-space:normal;shape-padding:0;clip-rule:nonzero;display:inline;overflow:visible;visibility:visible;isolation:auto;mix-blend-mode:normal;color-interpolation:sRGB;color-interpolation-filters:linearRGB;solid-color:#000000;solid-opacity:1;vector-effect:none;fill:#ffffff;fill-opacity:1;fill-rule:nonzero;stroke:none;stroke-width:6;stroke-linecap:butt;stroke-linejoin:miter;stroke-miterlimit:4;stroke-dasharray:none;stroke-dashoffset:0;stroke-opacity:1;color-rendering:auto;image-rendering:auto;shape-rendering:auto;text-rendering:auto;enable-background:accumulate" />
      <path
         sodipodi:nodetypes="csccscccsccscc"
         inkscape:connector-curvature="0"
         id="path989"
         d="m 77.800914,47.36653 c 10.506293,4.48221 22.385066,12.78111 33.522666,23.91871 11.1376,11.137594 19.43651,23.016369 23.91871,33.52266 l -5.52012,2.35472 C 125.65434,97.627646 117.75777,86.204703 107.08094,75.52788 96.404112,64.85106 84.981169,56.95448 75.446193,52.88666 Z m 31.053316,83.82944 C 98.347935,126.71376 86.469168,118.41485 75.331569,107.27725 64.193969,96.139647 55.895058,84.260881 51.412849,73.75459 l 5.520129,-2.35472 c 4.067824,9.534973 11.964404,20.957908 22.641231,31.63474 10.676827,10.67682 22.099771,18.5734 31.634741,22.64123 z"
         style="color:#000000;font-style:normal;font-variant:normal;font-weight:normal;font-stretch:normal;font-size:medium;line-height:normal;font-family:sans-serif;font-variant-ligatures:normal;font-variant-position:normal;font-variant-caps:normal;font-variant-numeric:normal;font-variant-alternates:normal;font-feature-settings:normal;text-indent:0;text-align:start;text-decoration:none;text-decoration-line:none;text-decoration-style:solid;text-decoration-color:#000000;letter-spacing:normal;word-spacing:normal;text-transform:none;writing-mode:lr-tb;direction:ltr;text-orientation:mixed;dominant-baseline:auto;baseline-shift:baseline;text-anchor:start;white-space:normal;shape-padding:0;clip-rule:nonzero;display:inline;overflow:visible;visibility:visible;isolation:auto;mix-blend-mode:normal;color-interpolation:sRGB;color-interpolation-filters:linearRGB;solid-color:#000000;solid-opacity:1;vector-effect:none;fill:#eeffaa;fill-opacity:1;fill-rule:nonzero;stroke:none;stroke-width:6;stroke-linecap:butt;stroke-linejoin:miter;stroke-miterlimit:4;stroke-dasharray:none;stroke-dashoffset:0;stroke-opacity:1;color-rendering:auto;image-rendering:auto;shape-rendering:auto;text-rendering:auto;enable-background:accumulate" />
      <path
         id="path990"
         style="fill:#ffffff;stroke-width:0.264583;stroke-linecap:round;stroke-linejoin:round;stroke-dasharray:0.79375, 0.264583"
         d="m 75.467588,107.40768 c 1.348002,1.34451 2.70537,2.6518 4.07107,3.91139 1.411235,1.30158 2.829928,2.55645 4.251939,3.76359 1.422009,1.20714 2.84756,2.36636 4.27209,3.47524 1.42453,1.10888 2.848129,2.16768 4.266923,3.17449 1.418796,1.0068 2.832666,1.96145 4.237469,2.86235 1.404802,0.9009 2.800654,1.7482 4.183201,2.53938 1.38256,0.79118 2.75158,1.52636 4.10363,2.204 1.35205,0.67764 2.68699,1.2975 4.00027,1.85777 l 2.3549,-5.52007 c -1.19187,-0.50848 -2.41348,-1.07666 -3.65921,-1.70274 -1.24572,-0.62608 -2.51565,-1.30991 -3.80494,-2.04949 -1.28929,-0.73959 -2.5976,-1.53484 -3.920169,-2.38384 -1.322567,-0.84899 -2.659372,-1.75198 -4.004924,-2.70629 -1.345552,-0.95431 -2.699901,-1.96031 -4.05815,-3.01584 -1.358249,-1.05552 -2.720232,-2.16033 -4.080889,-3.31297 -1.360657,-1.15265 -2.720361,-2.35308 -4.073136,-3.59875 -1.307227,-1.20373 -2.607017,-2.45402 -3.897437,-3.74086 z" />
      <path
         id="path893"
         style="fill:#00ff00;stroke-width:0.264583;stroke-linecap:round;stroke-linejoin:round;stroke-dasharray:0.79375, 0.264583"
         d="m 79.710225,74.193166 c 1.29042,-1.286838 2.59021,-2.537127 3.897437,-3.740857 1.352775,-1.245674 2.712479,-2.446102 4.073136,-3.598746 1.360657,-1.152648 2.72264,-2.257453 4.080889,-3.312978 1.358249,-1.055524 2.712598,-2.06153 4.05815,-3.015836 1.345552,-0.954307 2.682357,-1.857303 4.004924,-2.706295 1.322569,-0.848993 2.630879,-1.644251 3.920169,-2.383835 1.28929,-0.739583 2.55922,-1.423408 3.80494,-2.049487 1.24573,-0.626079 2.46734,-1.19426 3.65921,-1.702738 l -2.3549,-5.520077 c -1.31328,0.560276 -2.64822,1.18013 -4.00027,1.857768 -1.35205,0.677638 -2.72107,1.41282 -4.10363,2.204 -1.382547,0.791179 -2.778399,1.638479 -4.183201,2.53938 -1.404803,0.9009 -2.818673,1.855556 -4.237469,2.862357 -1.418794,1.006801 -2.842393,2.065603 -4.266923,3.174484 -1.42453,1.108881 -2.850081,2.268099 -4.27209,3.47524 -1.422011,1.207141 -2.840704,2.462014 -4.251939,3.763595 -1.3657,1.259586 -2.723068,2.566882 -4.07107,3.911388 z" />
      <path
         id="rect839"
         style="fill:#d35f5f;stroke-width:0.264583;stroke-linecap:round;stroke-linejoin:round;stroke-dasharray:0.79375, 0.264583"
         d="m 75.467588,69.950529 c -0.04494,0.04483 -0.09099,0.08531 -0.135908,0.130226 -1.392201,1.3922 -2.740033,2.796262 -4.041614,4.207497 -1.301581,1.411232 -2.55697,2.829925 -3.764111,4.251936 -1.207141,1.422009 -2.366359,2.847044 -3.475241,4.271574 -1.108881,1.42453 -2.167682,2.848645 -3.174483,4.267438 -1.006801,1.418797 -1.961458,2.832667 -2.862358,4.237469 -0.9009,1.404803 -1.747684,2.800139 -2.538863,4.18269 -0.791179,1.382554 -1.526879,2.752096 -2.204517,4.104143 -0.677638,1.352048 -1.297492,2.686988 -1.857768,4.000268 l 5.520077,2.35438 c 0.508478,-1.19187 1.077177,-2.41296 1.703255,-3.65869 0.626079,-1.24572 1.309904,-2.51616 2.049488,-3.805451 0.739584,-1.289289 1.534841,-2.597608 2.383834,-3.920173 0.848993,-1.322568 1.751471,-2.659372 2.705778,-4.004924 0.954307,-1.345552 1.960312,-2.699901 3.015837,-4.05815 1.055524,-1.35825 2.160846,-2.720232 3.313494,-4.080889 1.152647,-1.360657 2.352556,-2.719845 3.59823,-4.07262 1.245672,-1.352775 2.536995,-2.699259 3.871598,-4.033862 0.04493,-0.04494 0.09095,-0.08539 0.135909,-0.130225 z" />
      <path
         id="path982"
         style="fill:#ffffff;stroke-width:0.264583;stroke-linecap:round;stroke-linejoin:round;stroke-dasharray:0.79375, 0.264583"
         d="m 111.45402,71.421242 c -0.0448,-0.04494 -0.0853,-0.09099 -0.13022,-0.135908 -1.3922,-1.392201 -2.79626,-2.740036 -4.20749,-4.041614 -1.41124,-1.301581 -2.82993,-2.556972 -4.25194,-3.764113 -1.42201,-1.207141 -2.84705,-2.366359 -4.271575,-3.47524 -1.424533,-1.108881 -2.848645,-2.167683 -4.267441,-3.174484 -1.418794,-1.0068 -2.832664,-1.961458 -4.237467,-2.862357 -1.404802,-0.9009 -2.800138,-1.747685 -4.182692,-2.538864 -1.382554,-0.791179 -2.752093,-1.526879 -4.104143,-2.204517 -1.352047,-0.677637 -2.686984,-1.297491 -4.000272,-1.857767 l -2.354377,5.520077 c 1.191871,0.508477 2.412963,1.077177 3.65869,1.703255 1.245728,0.626078 2.515646,1.309904 3.804937,2.049487 1.28929,0.739584 2.598123,1.534841 3.920691,2.383834 1.322567,0.848993 2.658854,1.751472 4.004408,2.705778 1.345552,0.954307 2.700417,1.960313 4.058666,3.015837 1.35825,1.055524 2.720232,2.160846 4.080889,3.313493 1.360656,1.152647 2.719846,2.352559 4.072616,3.598231 1.35278,1.245671 2.69926,2.536997 4.03387,3.871598 0.0449,0.04494 0.0854,0.09095 0.13022,0.135908 z" />
      <path
         inkscape:connector-curvature="0"
         id="ellipse877"
         d="m 134.94803,46.457789 c -2.905,-2.905 -7.03863,-4.066015 -11.4822,-3.952615 -4.44357,0.113393 -9.35855,1.415963 -14.6117,3.657064 -10.506298,4.482208 -22.385065,12.78112 -33.522664,23.918719 -11.1376,11.137601 -19.436511,23.016366 -23.91872,33.522653 -2.241101,5.25314 -3.545052,10.16951 -3.658445,14.61308 -0.1134,4.44357 1.048997,8.57582 3.953996,11.48082 2.904993,2.90499 7.035864,4.06601 11.479437,3.95261 4.443567,-0.1134 9.359935,-1.41734 14.613077,-3.65845 10.506293,-4.48221 22.385069,-12.78111 33.522669,-23.91871 11.1376,-11.137591 19.43651,-23.016365 23.91871,-33.522657 2.24111,-5.253142 3.54368,-10.168129 3.65708,-14.611696 0.11339,-4.443574 -1.04625,-8.575826 -3.95124,-11.480818 z m -5.22596,23.737793 c -4.06783,9.534976 -11.9644,20.95792 -22.64123,31.634738 -10.676831,10.67682 -22.099774,18.5734 -31.63475,22.64122 -4.767487,2.03391 -9.057859,3.09367 -12.410274,3.17922 -3.352414,0.0856 -5.60612,-0.71714 -7.084878,-2.1959 -1.478765,-1.47876 -2.28283,-3.73384 -2.197277,-7.08625 0.08555,-3.35242 1.145302,-7.6428 3.179214,-12.41028 4.067824,-9.534968 11.964404,-20.957904 22.641231,-31.634731 10.676827,-10.676827 22.099774,-18.573407 31.634744,-22.641231 4.76749,-2.033912 9.05786,-3.093668 12.41028,-3.179214 3.35242,-0.08555 5.60749,0.718511 7.08626,2.197276 1.47876,1.478759 2.28145,3.732464 2.1959,7.084879"
         style="color:#000000;font-style:normal;font-variant:normal;font-weight:normal;font-stretch:normal;font-size:medium;line-height:normal;font-family:sans-serif;font-variant-ligatures:normal;font-variant-position:normal;font-variant-caps:normal;font-variant-numeric:normal;font-variant-alternates:normal;font-feature-settings:normal;text-indent:0;text-align:start;text-decoration:none;text-decoration-line:none;text-decoration-style:solid;text-decoration-color:#000000;letter-spacing:normal;word-spacing:normal;text-transform:none;writing-mode:lr-tb;direction:ltr;text-orientation:mixed;dominant-baseline:auto;baseline-shift:baseline;text-anchor:start;white-space:normal;shape-padding:0;clip-rule:nonzero;display:inline;overflow:visible;visibility:visible;isolation:auto;mix-blend-mode:normal;color-interpolation:sRGB;color-interpolation-filters:linearRGB;solid-color:#000000;solid-opacity:1;vector-effect:none;fill:#ffffff;fill-opacity:1;fill-rule:nonzero;stroke:none;stroke-width:6;stroke-linecap:butt;stroke-linejoin:miter;stroke-miterlimit:4;stroke-dasharray:none;stroke-dashoffset:0;stroke-opacity:1;color-rendering:auto;image-rendering:auto;shape-rendering:auto;text-rendering:auto;enable-background:accumulate"
         sodipodi:nodetypes="scssscsscsccscssccssssccc" />
      <path
         id="path895"
         style="fill:#ffffff;stroke-width:0.264583;stroke-linecap:round;stroke-linejoin:round;stroke-dasharray:0.79375, 0.264583"
         d="m 135.06292,72.936911 c 0.0553,-0.127286 0.12519,-0.259649 0.17932,-0.386538 l -5.52008,-2.354898 c -0.50848,1.191874 -1.07666,2.413485 -1.70274,3.659209 -0.62608,1.245727 -1.3099,2.515645 -2.04948,3.804936 -0.73959,1.289291 -1.53484,2.597608 -2.38384,3.920176 -0.84899,1.322567 -1.75199,2.659372 -2.70629,4.004924 -0.95431,1.345552 -1.96031,2.699901 -3.01584,4.05815 -1.05552,1.358249 -2.16033,2.720232 -3.31298,4.080889 -1.15264,1.360654 -2.35307,2.720361 -3.59874,4.073136 -1.20373,1.307227 -2.45402,2.607015 -3.74086,3.897435 l 1.47071,1.47071 c 0.045,-0.0448 0.091,-0.0853 0.13591,-0.13022 1.3346,-1.33461 2.62593,-2.68109 3.8716,-4.033864 1.24567,-1.352775 2.44558,-2.711964 3.59823,-4.072621 1.15264,-1.360657 2.25797,-2.722639 3.31349,-4.080888 1.05553,-1.35825 2.06153,-2.712599 3.01584,-4.058151 0.9543,-1.345551 1.85678,-2.682354 2.70578,-4.004924 0.84899,-1.322565 1.64425,-2.630884 2.38383,-3.920172 0.73958,-1.289291 1.42341,-2.559728 2.04949,-3.805455 0.62608,-1.245725 1.19477,-2.466819 1.70325,-3.65869 z" />
    </g>
    <g
       id="g912"
       transform="translate(-1.01484)">
      <g
         id="g833"
         style="fill:#000000">
        <circle
           transform="rotate(45)"
           r="4.9805193"
           cy="-4.0045033"
           cx="129.41568"
           id="path843"
           style="fill:#000000;fill-opacity:1;stroke:none;stroke-width:3.60673;stroke-linejoin:miter;stroke-miterlimit:4;stroke-dasharray:none;stroke-opacity:1" />
        <path
           d="m 126.17863,43.700451 c -0.27506,-0.003 -0.55168,-8.86e-4 -0.8294,0.0062 -4.44357,0.1134 -9.35682,1.417588 -14.60997,3.658691 -10.5063,4.482208 -22.388004,12.780838 -33.525604,23.918439 -4.60936,4.60936 -8.73061,9.345904 -12.29796,14.059608 0.32931,0.480774 0.66286,0.96262 1.00562,1.445905 0.85803,1.2098 1.76007,2.426859 2.7001,3.647324 3.62649,-4.957607 7.937,-10.012331 12.83488,-14.910203 10.67682,-10.676824 22.101334,-18.574728 31.636314,-22.642546 4.76749,-2.033912 9.05768,-3.093582 12.41009,-3.179135 3.35242,-0.08555 5.60608,0.720076 7.08484,2.198833 1.47876,1.478766 2.28438,3.732418 2.19884,7.084839 -0.0856,3.352415 -1.14523,7.642608 -3.17914,12.410096 -1.85157,4.340077 -4.49928,9.072142 -7.8388,13.946437 0.74247,0.98089 1.46274,1.960724 2.15646,2.938323 0.53326,0.751475 1.05066,1.501375 1.55443,2.249474 4.11263,-5.763054 7.37183,-11.449209 9.64644,-16.780889 2.2411,-5.253149 3.54477,-10.166913 3.65817,-14.610479 0.11339,-4.443574 -1.04876,-8.575437 -3.95376,-11.480437 -2.72343,-2.72343 -6.52554,-3.915577 -10.65155,-3.960482 z m -6.11642,46.73772 c -3.24186,4.208838 -6.96025,8.458867 -11.09803,12.596649 -10.676844,10.67683 -22.099794,18.57317 -31.634774,22.641 -4.76748,2.03391 -9.05768,3.09357 -12.41009,3.17913 -3.35242,0.0855 -5.60763,-0.71851 -7.08639,-2.19728 -1.47876,-1.47876 -2.28284,-3.73397 -2.19728,-7.08639 0.0855,-3.35241 1.14574,-7.64261 3.17965,-12.4101 1.54452,-3.62036 3.64212,-7.513125 6.23321,-11.533662 -0.28689,-0.360333 -0.57114,-0.720746 -0.85163,-1.081072 -1.04287,-1.339733 -2.03989,-2.678787 -2.99258,-4.013708 -3.30046,4.901639 -5.96378,9.717732 -7.90805,14.275102 -2.2411,5.25315 -3.54477,10.16691 -3.65817,14.61048 -0.1134,4.44356 1.04722,8.57699 3.95221,11.48198 2.905,2.905 7.03893,4.06613 11.48251,3.95273 4.44356,-0.1134 9.35681,-1.41758 14.60996,-3.65869 10.50629,-4.4822 22.386454,-12.77929 33.524054,-23.91689 3.8238,-3.82379 7.31277,-7.735488 10.42779,-11.6489 -0.8209,-1.273731 -1.6903,-2.560233 -2.60863,-3.855062 -0.31495,-0.444074 -0.63763,-0.889502 -0.96376,-1.335317 z"
           style="color:#000000;font-style:normal;font-variant:normal;font-weight:normal;font-stretch:normal;font-size:medium;line-height:normal;font-family:sans-serif;font-variant-ligatures:normal;font-variant-position:normal;font-variant-caps:normal;font-variant-numeric:normal;font-variant-alternates:normal;font-feature-settings:normal;text-indent:0;text-align:start;text-decoration:none;text-decoration-line:none;text-decoration-style:solid;text-decoration-color:#000000;letter-spacing:normal;word-spacing:normal;text-transform:none;writing-mode:lr-tb;direction:ltr;text-orientation:mixed;dominant-baseline:auto;baseline-shift:baseline;text-anchor:start;white-space:normal;shape-padding:0;clip-rule:nonzero;display:inline;overflow:visible;visibility:visible;isolation:auto;mix-blend-mode:normal;color-interpolation:sRGB;color-interpolation-filters:linearRGB;solid-color:#000000;solid-opacity:1;vector-effect:none;fill:#000000;fill-opacity:1;fill-rule:nonzero;stroke:none;stroke-width:6.00001;stroke-linecap:butt;stroke-linejoin:miter;stroke-miterlimit:4;stroke-dasharray:none;stroke-dashoffset:0;stroke-opacity:1;color-rendering:auto;image-rendering:auto;shape-rendering:auto;text-rendering:auto;enable-background:accumulate"
           id="path815" />
        <path
           d="m 94.350206,113.15801 c -4.3059,-3.29472 -8.65863,-7.09094 -12.89392,-11.32622 -10.67682,-10.676831 -18.57318,-22.099781 -22.64099,-31.634764 -2.03392,-4.767489 -3.0941,-9.057685 -3.17965,-12.410095 -0.0856,-3.35242 0.71852,-5.607629 2.19728,-7.08639 1.47876,-1.47877 3.73397,-2.282782 7.08639,-2.197282 3.35241,0.08556 7.64261,1.145215 12.41009,3.179135 3.70077,1.578823 7.68682,3.73682 11.80238,6.407878 1.11642,-0.852364 2.23161,-1.675089 3.34399,-2.46445 0.62301,-0.442096 1.24476,-0.872126 1.86552,-1.293977 -5.0339,-3.420594 -9.98236,-6.173025 -14.65854,-8.167978 -5.25315,-2.24111 -10.1664,-3.545292 -14.60996,-3.658692 -0.27773,-0.0071 -0.55433,-0.0092 -0.82941,-0.0062 -4.12616,0.04475 -7.92966,1.235494 -10.6531,3.958931 -2.90499,2.90499 -4.06561,7.038417 -3.95221,11.481987 0.1134,4.44356 1.41707,9.357329 3.65817,14.61048 4.48221,10.506293 12.77981,22.386448 23.91741,33.524047 3.95333,3.95334 8.0004,7.54813 12.04642,10.7422"
           style="color:#000000;font-style:normal;font-variant:normal;font-weight:normal;font-stretch:normal;font-size:medium;line-height:normal;font-family:sans-serif;font-variant-ligatures:normal;font-variant-position:normal;font-variant-caps:normal;font-variant-numeric:normal;font-variant-alternates:normal;font-feature-settings:normal;text-indent:0;text-align:start;text-decoration:none;text-decoration-line:none;text-decoration-style:solid;text-decoration-color:#000000;letter-spacing:normal;word-spacing:normal;text-transform:none;writing-mode:lr-tb;direction:ltr;text-orientation:mixed;dominant-baseline:auto;baseline-shift:baseline;text-anchor:start;white-space:normal;shape-padding:0;clip-rule:nonzero;display:inline;overflow:visible;visibility:visible;isolation:auto;mix-blend-mode:normal;color-interpolation:sRGB;color-interpolation-filters:linearRGB;solid-color:#000000;solid-opacity:1;vector-effect:none;fill:#000000;fill-opacity:1;fill-rule:nonzero;stroke:none;stroke-width:6.00001;stroke-linecap:butt;stroke-linejoin:miter;stroke-miterlimit:4;stroke-dasharray:none;stroke-dashoffset:0;stroke-opacity:1;color-rendering:auto;image-rendering:auto;shape-rendering:auto;text-rendering:auto;enable-background:accumulate"
           id="path970" />
        <path
           d="m 99.552856,58.090788 c -1.18612,0.769855 -2.38279,1.580002 -3.58686,2.433961 -0.53968,0.382757 -1.08096,0.776388 -1.62315,1.175638 4.86507,3.582233 9.818444,7.820112 14.621334,12.623004 10.67683,10.676817 18.57524,22.101332 22.64306,31.636309 2.03391,4.76748 3.09354,9.05769 3.17914,12.4101 0.0856,3.35242 -0.72007,5.60608 -2.19883,7.08484 -1.47876,1.47876 -3.73242,2.28443 -7.08484,2.19883 -3.35241,-0.0855 -7.64261,-1.14522 -12.4101,-3.17913 -3.73121,-1.59181 -7.75235,-3.77271 -11.90418,-6.47454 -0.22975,0.18142 -0.45965,0.36379 -0.68937,0.5426 -1.424534,1.10888 -2.848134,2.16768 -4.266924,3.17448 -0.051,0.0362 -0.10198,0.0709 -0.15297,0.10697 5.034504,3.42117 9.983654,6.17394 14.660104,8.16901 5.25315,2.2411 10.1664,3.5453 14.60996,3.6587 4.44357,0.1134 8.57596,-1.04929 11.48095,-3.95428 2.905,-2.90501 4.06715,-7.03687 3.95376,-11.48044 -0.11339,-4.44357 -1.41707,-9.35733 -3.65817,-14.61048 C 132.64356,93.10007 124.34443,81.218343 113.20682,70.080755 108.72963,65.60357 104.13256,61.586743 99.552856,58.090788 v 0"
           style="color:#000000;font-style:normal;font-variant:normal;font-weight:normal;font-stretch:normal;font-size:medium;line-height:normal;font-family:sans-serif;font-variant-ligatures:normal;font-variant-position:normal;font-variant-caps:normal;font-variant-numeric:normal;font-variant-alternates:normal;font-feature-settings:normal;text-indent:0;text-align:start;text-decoration:none;text-decoration-line:none;text-decoration-style:solid;text-decoration-color:#000000;letter-spacing:normal;word-spacing:normal;text-transform:none;writing-mode:lr-tb;direction:ltr;text-orientation:mixed;dominant-baseline:auto;baseline-shift:baseline;text-anchor:start;white-space:normal;shape-padding:0;clip-rule:nonzero;display:inline;overflow:visible;visibility:visible;isolation:auto;mix-blend-mode:normal;color-interpolation:sRGB;color-interpolation-filters:linearRGB;solid-color:#000000;solid-opacity:1;vector-effect:none;fill:#000000;fill-opacity:1;fill-rule:nonzero;stroke:none;stroke-width:6.00001;stroke-linecap:butt;stroke-linejoin:miter;stroke-miterlimit:4;stroke-dasharray:none;stroke-dashoffset:0;stroke-opacity:1;color-rendering:auto;image-rendering:auto;shape-rendering:auto;text-rendering:auto;enable-background:accumulate"
           id="path815-6" />
      </g>
    </g>
  </g>
</svg>
